<?xml version="1.0" encoding="UTF-8"?>
<svg version="1.1" xmlns="http://www.w3.org/2000/svg" width="685" height="162">
<path d="M0 0 C226.05 0 452.1 0 685 0 C685 53.46 685 106.92 685 162 C458.95 162 232.9 162 0 162 C0 108.54 0 55.08 0 0 Z " fill="#FEFEFE" transform="translate(0,0)"/>
<path d="M0 0 C2.92013639 2.58477058 4.3853483 5.83198643 6.1875 9.25 C8.29202338 13.41525902 8.29202338 13.41525902 11.96484375 15.9296875 C14.37615094 16.19262117 14.37615094 16.19262117 17.8125 16 C18.8025 16.99 18.8025 16.99 19.8125 18 C19.77962417 20.72869407 19.24852229 23.2966618 18.8125 26 C19.555 26.226875 20.2975 26.45375 21.0625 26.6875 C24.37015809 28.266155 25.76108409 29.99614099 27.8125 33 C32.03222386 45.65917158 31.8196329 66.31431722 27.8125 79 C26.36328125 81.3125 26.36328125 81.3125 24.8125 83 C24.1525 83 23.4925 83 22.8125 83 C22.668125 83.639375 22.52375 84.27875 22.375 84.9375 C21.8125 87 21.8125 87 20.8125 88 C17.00661856 88.25208722 13.18824544 88.18522344 9.375 88.1875 C8.29927734 88.19974609 7.22355469 88.21199219 6.11523438 88.22460938 C5.08849609 88.22654297 4.06175781 88.22847656 3.00390625 88.23046875 C1.58380249 88.23663208 1.58380249 88.23663208 0.13500977 88.24291992 C-2.1875 88 -2.1875 88 -4.1875 86 C-4.1875 85.01 -4.1875 84.02 -4.1875 83 C-5.21238525 83.02030273 -6.23727051 83.04060547 -7.29321289 83.06152344 C-10.83677043 83.00554096 -14.01331765 82.62086272 -17.49609375 82.015625 C-25.3196323 80.84400896 -33.00972286 80.69621588 -40.91040039 80.73925781 C-43.25107615 80.75000494 -45.59098751 80.73927945 -47.93164062 80.7265625 C-55.94331734 80.71991262 -63.60427019 81.10437182 -71.51660156 82.53466797 C-73.97999831 82.96384843 -76.38405595 83.1894806 -78.875 83.375 C-80.5146875 83.684375 -80.5146875 83.684375 -82.1875 84 C-82.8475 85.32 -83.5075 86.64 -84.1875 88 C-91.7775 88 -99.3675 88 -107.1875 88 C-107.8475 86.68 -108.5075 85.36 -109.1875 84 C-110.18523437 83.32710937 -110.18523437 83.32710937 -111.203125 82.640625 C-115.60960711 78.9974705 -115.6486447 71.4523933 -116.1875 66 C-118.00381868 36.98507868 -118.00381868 36.98507868 -111.72265625 29.1796875 C-109.644761 27.32025068 -108.05013695 26 -105.1875 26 C-105.39375 24.72125 -105.6 23.4425 -105.8125 22.125 C-106.1640625 19.9453125 -106.1640625 19.9453125 -106.1875 18 C-105.5275 17.34 -104.8675 16.68 -104.1875 16 C-102.970625 16.04125 -101.75375 16.0825 -100.5 16.125 C-98.27749458 16.03396954 -98.27749458 16.03396954 -96.1875 15 C-94.13877099 12.13355703 -92.59422878 9.13541073 -90.953125 6.01953125 C-86.41447892 -1.74235684 -78.53591785 -4.68470545 -70.1875 -7 C-49.09718958 -12.41092512 -18.85595775 -11.83118918 0 0 Z " fill="#0253CC" transform="translate(137.1875,45)"/>
<path d="M0 0 C6.93 0 13.86 0 21 0 C21.51908936 1.53221191 22.03817871 3.06442383 22.57299805 4.64306641 C24.51943897 10.38743459 26.46738976 16.13128984 28.41577148 21.875 C29.25504366 24.34979759 30.09391921 26.82472973 30.93237305 29.29980469 C32.14524973 32.87992191 33.35939205 36.45960653 34.57421875 40.0390625 C35.1594783 41.76494598 35.1594783 41.76494598 35.75656128 43.5256958 C38.15820224 50.58773179 40.62386464 57.61912452 43.23364258 64.60693359 C44 67 44 67 44 70 C38.72 70 33.44 70 28 70 C26.35 65.05 24.7 60.1 23 55 C14.75 55 6.5 55 -2 55 C-3.65 59.95 -5.3 64.9 -7 70 C-12.28 70 -17.56 70 -23 70 C-21.68719392 63.57248534 -19.93780218 57.52138665 -17.734375 51.34765625 C-17.26055389 49.99914833 -17.26055389 49.99914833 -16.77716064 48.62339783 C-15.7729511 45.76803026 -14.76183985 42.91517152 -13.75 40.0625 C-12.43004959 36.32500715 -11.11299508 32.58649944 -9.796875 28.84765625 C-9.47682495 27.93980377 -9.1567749 27.03195129 -8.82702637 26.09658813 C-5.78096326 17.43110729 -2.87912697 8.72232409 0 0 Z " fill="#141B2A" transform="translate(237,46)"/>
<path d="M0 0 C6.40564389 3.43245824 11.37409686 9.29760495 13.56640625 16.2421875 C15.32510828 25.40011339 14.59678753 35.17510076 9.30078125 43.015625 C5.21691955 47.99007344 1.48206977 51.5725654 -5 52.5 C-7.72407807 52.69063021 -10.39901714 52.82764812 -13.125 52.875 C-13.80626953 52.88926025 -14.48753906 52.90352051 -15.18945312 52.91821289 C-21.68821729 52.8541428 -26.73155779 50.44325788 -31.54296875 46.1015625 C-37.73855552 39.2914001 -38.72251029 32.00179894 -38.58935547 23.12329102 C-38.22862867 15.68310559 -36.558238 9.91476066 -31.0625 4.640625 C-22.31897316 -2.31445317 -10.56070255 -4.11503237 0 0 Z " fill="#151B2A" transform="translate(424,64.5)"/>
<path d="M0 0 C5.91314212 3.5087711 10.14474685 7.87649936 13.0078125 14.19140625 C13.64062875 16.92275288 13.8569338 19.37500384 14.0078125 22.19140625 C9.0578125 22.19140625 4.1078125 22.19140625 -0.9921875 22.19140625 C-1.5284375 20.93328125 -2.0646875 19.67515625 -2.6171875 18.37890625 C-4.12024384 15.41992774 -4.94843588 14.2239656 -7.6796875 12.19140625 C-13.43131124 10.45506701 -18.07459509 10.59412337 -23.8046875 12.37890625 C-28.83561442 15.2396294 -31.23216391 18.76090613 -32.9921875 24.19140625 C-33.207889 26.82464535 -33.32631721 29.31216038 -33.3046875 31.94140625 C-33.29622803 33.00548706 -33.29622803 33.00548706 -33.28759766 34.09106445 C-33.14583848 40.22951748 -32.80475798 46.09382863 -28.52734375 50.8046875 C-23.8044516 54.90401932 -20.6473335 55.49928757 -14.59765625 55.39453125 C-10.5600948 55.07975884 -8.4492794 54.40394507 -4.9921875 52.19140625 C-3.25980236 49.58511763 -2.18990478 47.11383642 -0.9921875 44.19140625 C3.9578125 44.19140625 8.9078125 44.19140625 14.0078125 44.19140625 C12.64636999 53.72150379 9.38046604 58.38201893 2.265625 64.6484375 C-3.83126221 68.81499537 -9.06309956 69.74917143 -16.3046875 69.69140625 C-17.14555908 69.68496094 -17.98643066 69.67851563 -18.8527832 69.671875 C-25.54910184 69.47482913 -30.59408904 68.35710864 -35.9921875 64.19140625 C-36.71664063 63.63324219 -37.44109375 63.07507813 -38.1875 62.5 C-45.47462274 56.05990444 -48.82549382 48.52719932 -49.43359375 38.87890625 C-49.49242029 36.94187889 -49.53264131 35.00420126 -49.5546875 33.06640625 C-49.56951172 32.14843262 -49.58433594 31.23045898 -49.59960938 30.28466797 C-49.4387144 19.59089813 -45.68348369 12.01047502 -38.375 4.328125 C-28.47995637 -4.5449715 -11.83999902 -5.75945715 0 0 Z " fill="#151C2A" transform="translate(495.9921875,47.80859375)"/>
<path d="M0 0 C3.52914121 2.91421509 6.07651821 5.86627338 7.546875 10.27734375 C7.63254746 11.64326558 7.66461147 13.01299233 7.66040039 14.3815918 C7.66032486 15.20221603 7.66024933 16.02284027 7.66017151 16.86833191 C7.65501022 17.749673 7.64984894 18.6310141 7.64453125 19.5390625 C7.6431163 20.4448555 7.64170135 21.3506485 7.64024353 22.28388977 C7.63464501 25.17757466 7.62209281 28.07118224 7.609375 30.96484375 C7.60435981 32.92643117 7.59979693 34.88801981 7.59570312 36.84960938 C7.58467607 41.65888396 7.56741247 46.46810075 7.546875 51.27734375 C2.926875 51.27734375 -1.693125 51.27734375 -6.453125 51.27734375 C-6.948125 48.30734375 -6.948125 48.30734375 -7.453125 45.27734375 C-8.38125 46.08171875 -9.309375 46.88609375 -10.265625 47.71484375 C-15.2749924 52.0562955 -20.59678858 51.67386149 -26.98828125 51.62109375 C-31.70744517 51.15290161 -34.38414573 49.85781957 -37.453125 46.27734375 C-40.77272815 41.56564896 -41.34856381 36.88138212 -40.453125 31.27734375 C-38.06630394 26.41190082 -35.17437595 23.86940309 -30.453125 21.27734375 C-25.32478946 19.59737176 -20.3487784 18.74762711 -15.015625 18.15234375 C-14.28408203 18.06597656 -13.55253906 17.97960937 -12.79882812 17.890625 C-11.01752406 17.68105982 -9.23540219 17.47846507 -7.453125 17.27734375 C-8.55098925 11.8694699 -8.55098925 11.8694699 -12.453125 8.27734375 C-16.36143919 7.94472127 -19.16638832 8.04705814 -22.453125 10.27734375 C-23.443125 11.76234375 -23.443125 11.76234375 -24.453125 13.27734375 C-27.7109375 13.5703125 -27.7109375 13.5703125 -31.578125 13.46484375 C-32.85945312 13.43777344 -34.14078125 13.41070312 -35.4609375 13.3828125 C-36.44835937 13.34800781 -37.43578125 13.31320313 -38.453125 13.27734375 C-36.33709716 6.26676554 -33.47917373 2.01451987 -27.078125 -1.66015625 C-19.04532742 -4.14132925 -7.29313624 -4.53400727 0 0 Z " fill="#171E2C" transform="translate(558.453125,65.72265625)"/>
<path d="M0 0 C8.34116565 5.00469939 12.13735928 10.08389422 14.875 19.4375 C15.23007724 22.89950308 15.125 26.39483547 15.125 29.875 C2.915 29.875 -9.295 29.875 -21.875 29.875 C-19.79900442 37.12635269 -19.79900442 37.12635269 -14.875 40.875 C-12.46370749 41.38301515 -12.46370749 41.38301515 -9.9375 41.3125 C-9.10347656 41.33183594 -8.26945313 41.35117188 -7.41015625 41.37109375 C-4.69547035 41.05510074 -4.69547035 41.05510074 -2.515625 38.86328125 C0.96720506 36.24085447 3.13573702 36.46418643 7.4375 36.625 C8.69175781 36.66109375 9.94601562 36.6971875 11.23828125 36.734375 C12.19089844 36.78078125 13.14351562 36.8271875 14.125 36.875 C12.08299173 43.44971721 9.46536155 47.90442421 3.375 51.25 C-4.10831061 54.24332425 -13.79997889 54.13259321 -21.5390625 52.21484375 C-28.17229198 49.25678195 -32.56297157 43.45212177 -35.26635742 36.85327148 C-36.36405423 33.28542664 -36.40645089 29.77213205 -36.375 26.0625 C-36.36855469 25.27004883 -36.36210938 24.47759766 -36.35546875 23.66113281 C-36.12060085 16.11754665 -34.48731717 10.40572479 -28.97265625 5.015625 C-21.03538916 -1.38293964 -9.76338457 -3.74152379 0 0 Z " fill="#181F2D" transform="translate(648.875,64.125)"/>
<path d="M0 0 C4.95 0 9.9 0 15 0 C15.02505615 1.06959961 15.0501123 2.13919922 15.07592773 3.24121094 C15.17019528 7.21463727 15.27036858 11.18789668 15.37231445 15.16113281 C15.41559016 16.87984305 15.45727041 18.59859424 15.49731445 20.31738281 C15.55519565 22.789839 15.61883836 25.26209047 15.68359375 27.734375 C15.70030624 28.50118591 15.71701874 29.26799683 15.73423767 30.05804443 C15.83012865 33.52173984 16.07915862 36.66366251 17 40 C23.75957633 41.33652165 23.75957633 41.33652165 30.0625 39.25 C33.47152499 35.29113227 33.20224851 31.24380268 33.31640625 26.26953125 C33.33718735 25.51911057 33.35796844 24.76868988 33.37937927 23.99552917 C33.44469926 21.60127816 33.50367792 19.20691861 33.5625 16.8125 C33.60570193 15.18813987 33.64931676 13.56379067 33.69335938 11.93945312 C33.8011389 7.95974498 33.90034215 3.97995299 34 0 C38.95 0 43.9 0 49 0 C49 17.82 49 35.64 49 54 C44.38 54 39.76 54 35 54 C34.34 51.69 33.68 49.38 33 47 C32.27683594 47.63228516 32.27683594 47.63228516 31.5390625 48.27734375 C30.90742188 48.82519531 30.27578125 49.37304688 29.625 49.9375 C28.99851562 50.48277344 28.37203125 51.02804688 27.7265625 51.58984375 C23.2174893 55.27259358 17.54632451 54.52269027 12 54 C6.28843314 51.24620884 2.49270069 46.80562425 0 41 C-0.24050903 38.96246338 -0.24050903 38.96246338 -0.22705078 36.78222656 C-0.22689972 35.96167786 -0.22674866 35.14112915 -0.22659302 34.29571533 C-0.21627045 33.41953552 -0.20594788 32.54335571 -0.1953125 31.640625 C-0.1924826 30.73624695 -0.18965271 29.8318689 -0.18673706 28.90008545 C-0.17555782 26.01658805 -0.15045733 23.13340325 -0.125 20.25 C-0.11496728 18.29297324 -0.10584194 16.33594161 -0.09765625 14.37890625 C-0.07562585 9.58581738 -0.04111144 4.79296166 0 0 Z " fill="#19202F" transform="translate(290,63)"/>
<path d="M0 0 C1.80404297 -0.00483398 1.80404297 -0.00483398 3.64453125 -0.00976562 C30.76076307 0.15042694 30.76076307 0.15042694 39.05078125 7.73046875 C40.375 9.25 40.375 9.25 42.5 12.3125 C43.098125 13.158125 43.69625 14.00375 44.3125 14.875 C45.5 17.3125 45.5 17.3125 45.5 22.3125 C16.46 22.3125 -12.58 22.3125 -42.5 22.3125 C-41.22725845 14.6760507 -38.60085325 9.76734216 -32.5 4.9375 C-22.51111093 0.12959824 -10.85093669 -0.14537697 0 0 Z " fill="#FAFCFE" transform="translate(92.5,45.6875)"/>
<path d="M0 0 C4.62 0 9.24 0 14 0 C14 3.96 14 7.92 14 12 C17.63 12 21.26 12 25 12 C25 15.96 25 19.92 25 24 C21.7 24 18.4 24 15 24 C15.495 38.355 15.495 38.355 16 53 C18.64 53.33 21.28 53.66 24 54 C25.17661508 57.67692213 25.14475933 61.1638778 25 65 C23.08598477 66.91401523 19.86149652 66.26189296 17.3125 66.3125 C11.40480616 66.27647748 8.28849586 66.05668527 4 62 C3.401875 61.505 2.80375 61.01 2.1875 60.5 C-0.73275779 56.81125331 -0.11545275 52.09409365 -0.09765625 47.609375 C-0.0962413 46.90476135 -0.09482635 46.20014771 -0.09336853 45.47418213 C-0.08778933 43.23274416 -0.07524073 40.99140757 -0.0625 38.75 C-0.05748231 37.22656395 -0.05291987 35.70312632 -0.04882812 34.1796875 C-0.03782674 30.45309228 -0.02057646 26.72655604 0 23 C-2.31 23 -4.62 23 -7 23 C-7 19.7 -7 16.4 -7 13 C-4.69 13 -2.38 13 0 13 C0 8.71 0 4.42 0 0 Z " fill="#161D2C" transform="translate(354,51)"/>
<path d="M0 0 C4.95 0 9.9 0 15 0 C15.33 1.98 15.66 3.96 16 6 C16.38929688 5.566875 16.77859375 5.13375 17.1796875 4.6875 C19.89220498 1.9874826 21.81898871 0.17483767 25.69140625 -0.3984375 C28.13113285 -0.3776148 30.5683841 -0.19985884 33 0 C33 4.29 33 8.58 33 13 C31.453125 12.938125 29.90625 12.87625 28.3125 12.8125 C24.0328554 12.81855325 21.33328664 13.08337419 18 16 C15.51047267 19.66959203 15.6543438 23.54614135 15.5859375 27.828125 C15.56657135 28.57713074 15.5472052 29.32613647 15.5272522 30.09783936 C15.46764284 32.48177836 15.42114646 34.86576614 15.375 37.25 C15.33680299 38.86981231 15.29775025 40.48960468 15.2578125 42.109375 C15.16035096 46.07281082 15.08063723 50.03604345 15 54 C10.05 54 5.1 54 0 54 C0 36.18 0 18.36 0 0 Z " fill="#1B2230" transform="translate(577,63)"/>
<path d="M0 0 C1.25490234 -0.01160156 2.50980469 -0.02320312 3.80273438 -0.03515625 C14.77727208 -0.00119688 25.28290437 1.11988038 35.0625 6.375 C35.375 8.6875 35.375 8.6875 35.0625 11.375 C31.44697286 14.12944977 28.74018319 14.75489332 24.25 14.77905273 C23.1053125 14.79173691 21.960625 14.80442108 20.78125 14.81748962 C19.5540625 14.81455399 18.326875 14.81161835 17.0625 14.80859375 C15.7940625 14.8138356 14.525625 14.81907745 13.21875 14.82447815 C10.53874595 14.83089748 7.85959474 14.83100452 5.1796875 14.82104492 C1.75302975 14.80954812 -1.67259854 14.82978359 -5.09912109 14.85896206 C-8.37858579 14.88176236 -11.65797463 14.87485623 -14.9375 14.87109375 C-16.77828125 14.88794472 -16.77828125 14.88794472 -18.65625 14.90513611 C-19.8009375 14.89575516 -20.945625 14.88637421 -22.125 14.87670898 C-23.12917969 14.87654282 -24.13335937 14.87637665 -25.16796875 14.87620544 C-28.64985288 14.24608463 -30.36777254 12.74259118 -32.9375 10.375 C-32.58038332 7.78590405 -32.21390464 6.62667053 -30.25415039 4.84228516 C-21.61928811 -0.62673395 -9.83715206 -0.090665 0 0 Z " fill="#FBFCFE" transform="translate(92.9375,99.625)"/>
<path d="M0 0 C4.10843651 1.59858338 5.43674283 3.61347855 7.23828125 7.515625 C9.06563953 13.47562432 8.80068342 19.64009096 6.8125 25.5 C4.72753685 28.37581124 3.07092892 30.18536018 0 32 C-4.15360383 32.59337198 -6.19875662 32.48074603 -9.8125 30.3125 C-13.89374295 25.99804317 -14.29357497 21.87248454 -14.3125 16.0625 C-14.32925781 14.87785156 -14.34601563 13.69320312 -14.36328125 12.47265625 C-13.88155577 7.86777505 -12.41280372 4.51371827 -9.25 1.125 C-6.03474652 -0.48262674 -3.54582725 -0.31659172 0 0 Z " fill="#FAFAFB" transform="translate(415,74)"/>
<path d="M0 0 C2.23621557 2.23621557 2.73133735 3.67864029 3.7265625 6.6484375 C4.0359375 7.57140625 4.3453125 8.494375 4.6640625 9.4453125 C4.98117188 10.41210938 5.29828125 11.37890625 5.625 12.375 C5.94984375 13.3340625 6.2746875 14.293125 6.609375 15.28125 C6.91617188 16.20679687 7.22296875 17.13234375 7.5390625 18.0859375 C7.95986084 19.3551001 7.95986084 19.3551001 8.38916016 20.64990234 C9 23 9 23 9 27 C3.39 27 -2.22 27 -8 27 C-6.87393348 19.11753439 -6.87393348 19.11753439 -5.625 15.1953125 C-5.36203125 14.36515625 -5.0990625 13.535 -4.828125 12.6796875 C-4.55484375 11.83664063 -4.2815625 10.99359375 -4 10.125 C-3.72671875 9.25875 -3.4534375 8.3925 -3.171875 7.5 C-1.1374568 1.1374568 -1.1374568 1.1374568 0 0 Z " fill="#F0F0F1" transform="translate(247,62)"/>
<path d="M0 0 C0.49029622 7.23186925 0.49029622 7.23186925 -1.875 10.9375 C-4.82726511 13.80293378 -6.42921266 14.15459124 -10.4375 14.1875 C-11.61119141 14.20876953 -11.61119141 14.20876953 -12.80859375 14.23046875 C-15 14 -15 14 -18 12 C-18.66291608 5.92326926 -18.66291608 5.92326926 -16.81640625 3.3515625 C-14.44065014 1.58379559 -12.47670622 1.27513518 -9.5625 0.8125 C-8.61503906 0.65394531 -7.66757812 0.49539062 -6.69140625 0.33203125 C-4 0 -4 0 0 0 Z " fill="#FAFBFB" transform="translate(551,93)"/>
<path d="M0 0 C6.56701348 0.02121814 12.31397651 2.80608721 18.25 5.375 C18.25 6.695 18.25 8.015 18.25 9.375 C14.01802189 10.3880604 9.97054789 10.5735734 5.625 10.625 C4.31273437 10.65078125 3.00046875 10.6765625 1.6484375 10.703125 C-1.75 10.375 -1.75 10.375 -3.6953125 9.0546875 C-5.30066876 6.49800901 -5.0055581 4.31391812 -4.75 1.375 C-3.75 0.375 -3.75 0.375 0 0 Z " fill="#F0F4FB" transform="translate(35.75,79.625)"/>
<path d="M0 0 C0.25 3.3125 0.25 3.3125 0 7 C-2.2873038 9.41958161 -3.66328475 9.96302735 -6.98828125 10.328125 C-8.63376953 10.28945312 -8.63376953 10.28945312 -10.3125 10.25 C-12.02953125 10.21132812 -12.02953125 10.21132812 -13.78125 10.171875 C-17.25988082 9.98612287 -20.57798397 9.63665414 -24 9 C-24 8.01 -24 7.02 -24 6 C-15.73015521 1.67617252 -9.40476956 -0.33455702 0 0 Z " fill="#F0F4FC" transform="translate(157,80)"/>
<path d="M0 0 C2.77406113 1.37290602 3.8999013 2.5768092 6 5 C6 6.65 6 8.3 6 10 C-1.26 10 -8.52 10 -16 10 C-12.24483672 1.23795235 -9.5411839 -1.76322397 0 0 Z " fill="#FBFBFB" transform="translate(643,74)"/>
</svg>
